<?xml version="1.0" standalone="no"?>
<!DOCTYPE svg PUBLIC "-//W3C//DTD SVG 20010904//EN"
 "http://www.w3.org/TR/2001/REC-SVG-20010904/DTD/svg10.dtd">
<svg version="1.0" xmlns="http://www.w3.org/2000/svg"
 width="38.000000pt" height="106.000000pt" viewBox="0 0 38.000000 106.000000"
 preserveAspectRatio="xMidYMid meet">
<metadata>
Created by potrace 1.16, written by Peter Selinger 2001-2019
</metadata>
<g transform="translate(0.000000,106.000000) scale(0.100000,-0.100000)"
fill="#000000" stroke="none">
<path d="M123 1039 c-44 -22 -83 -82 -83 -129 0 -46 39 -108 80 -127 l39 -18
1 -292 0 -293 -30 0 -30 0 42 -85 c23 -47 45 -85 48 -85 3 0 25 38 48 85 l42
85 -30 0 -30 0 0 289 0 290 40 22 c42 24 80 85 80 129 0 44 -38 105 -79 128
-48 27 -84 28 -138 1z"/>
</g>
</svg>
